<?xml version="1.0" encoding="UTF-8" standalone="no"?>
<svg
   width="330"
   height="100"
   viewBox="0 0 330 100"
   version="1.1"
   id="svg64"
   sodipodi:docname="logo.svg"
   xml:space="preserve"
   inkscape:version="1.2.2 (732a01da63, 2022-12-09)"
   xmlns:inkscape="http://www.inkscape.org/namespaces/inkscape"
   xmlns:sodipodi="http://sodipodi.sourceforge.net/DTD/sodipodi-0.dtd"
   xmlns="http://www.w3.org/2000/svg"
   xmlns:svg="http://www.w3.org/2000/svg"><sodipodi:namedview
     id="namedview66"
     pagecolor="#ffffff"
     bordercolor="#000000"
     borderopacity="0.25"
     inkscape:showpageshadow="2"
     inkscape:pageopacity="0.0"
     inkscape:pagecheckerboard="0"
     inkscape:deskcolor="#d1d1d1"
     showgrid="false"
     inkscape:zoom="2.6133909"
     inkscape:cx="172.3814"
     inkscape:cy="107.71446"
     inkscape:window-width="1350"
     inkscape:window-height="978"
     inkscape:window-x="313"
     inkscape:window-y="55"
     inkscape:window-maximized="0"
     inkscape:current-layer="Group_1" /><defs
     id="defs38"><clipPath
       id="clip-Haven-logo-horizontal-blue"><rect
         width="463"
         height="235"
         id="rect35"
         x="0"
         y="0" /></clipPath><clipPath
       id="clip-Haven-logo-horizontal-blue-0"><rect
         width="463"
         height="235"
         id="rect566"
         x="0"
         y="0" /></clipPath></defs><g
     id="Group_1"
     data-name="Group 1"
     transform="matrix(0.73053195,0,0,0.73053195,-21.737458,-19.465569)"
     clip-path="url(#clipPath628)"><path
       id="Path_23"
       data-name="Path 23"
       d="M 191.54,122.51547 H 180.08 V 94.115468 a 16.43,16.43 0 0 0 -4.92,-12.18 18.07,18.07 0 0 0 -24.65,0 16.42,16.42 0 0 0 -4.92,12.21 V 122.54547 H 134.13 V 41.085468 h 11.46 v 30.28 a 28.23,28.23 0 0 1 17.27,-5.7 27.859,27.859 0 0 1 20.45,8.18 27.409,27.409 0 0 1 8.23,20.27 z"
       fill="#315470" /><path
       id="Path_24"
       data-name="Path 24"
       d="m 218.09,81.935468 a 16.388,16.388 0 0 0 -4.94,12.18 16.391,16.391 0 0 0 4.94,12.170002 18,18 0 0 0 24.63,0 16.45,16.45 0 0 0 4.92,-12.180002 16.45,16.45 0 0 0 -4.92,-12.18 18,18 0 0 0 -24.63,0 m 41,9.33 v 31.250002 h -11.45 v -5.64 a 28.338,28.338 0 0 1 -17.22,5.64 28,28 0 0 1 -20.42,-8.14 27.319,27.319 0 0 1 -8.26,-20.250002 27.431,27.431 0 0 1 8.26,-20.28 29.64,29.64 0 0 1 39.83,-0.94 27.442,27.442 0 0 1 9.1,18.39 z"
       fill="#315470" /><path
       id="Path_25"
       data-name="Path 25"
       d="m 328.06,65.825468 -25.31,56.740002 h -15.91 l -25.31,-56.740002 12.44,-0.11 20.85,45.720002 20.75,-45.720002 z"
       fill="#315470" /><path
       id="Path_26"
       data-name="Path 26"
       d="m 347.36,80.175468 a 16.657,16.657 0 0 0 -6.3,8.19 h 32.42 a 16.687,16.687 0 0 0 -6.25,-8.22 17.489,17.489 0 0 0 -19.87,0 m 0,27.890002 a 17,17 0 0 0 9.94,3.1 h 25.79 v 11.55 h -26 v -0.17 a 27.893,27.893 0 0 1 -20.36,-8.2 27.329,27.329 0 0 1 -8.21,-20.200002 27.377,27.377 0 0 1 8.26,-20.27 28.72,28.72 0 0 1 48.55,14.61 l -7.13,11.42 h -37.14 a 16.7,16.7 0 0 0 6.3,8.190002"
       fill="#315470" /><path
       id="Path_27"
       data-name="Path 27"
       d="m 442.77,73.405468 a 27.481,27.481 0 0 1 8.23,20.28 V 122.08547 H 439.54 V 93.685468 a 16.56,16.56 0 0 0 -4.91,-12.21 18,18 0 0 0 -24.66,0 16.509,16.509 0 0 0 -4.91,12.24 V 122.11547 H 393.6 V 93.685468 a 27.419,27.419 0 0 1 8.25,-20.28 29.7,29.7 0 0 1 40.92,0"
       fill="#315470" /><path
       id="Path_28"
       data-name="Path 28"
       d="m 139.07791,134.81802 c -2.47,0 -3.90023,0.96519 -3.90023,3.11054 v 8.03299 h -1.09242 v -11.82354 h 0.90377 l 0.11845,1.43462 h 0.0483 c 0.73704,-1.24597 2.16289,-1.75489 3.78177,-1.75489 h 0.47382 v 0.98713 z"
       fill="#315470"
       style="stroke-width:0.438721" /><path
       id="Path_29"
       data-name="Path 29"
       d="m 145.68944,134.67764 c -3.13686,0 -3.94849,2.66304 -3.94849,4.85226 h 7.3749 c 0,-2.40419 -0.9257,-4.85226 -3.42641,-4.85226 m 4.47057,5.7297 h -8.41467 c 0,2.99208 1.37758,4.94439 3.97043,4.94439 a 5.1418143,5.1418143 0 0 0 3.54047,-1.41269 l 0.47821,0.80286 a 6.0447028,6.0447028 0 0 1 -4.04501,1.48288 c -3.35183,0 -5.08917,-2.38226 -5.08917,-6.17281 0,-3.5317 1.57063,-6.21668 5.08917,-6.21668 2.90433,0 4.49689,2.37787 4.49689,5.67706 0,0.14039 0,0.70634 -0.0263,0.87744"
       fill="#315470"
       style="stroke-width:0.438721" /><path
       id="Path_30"
       data-name="Path 30"
       d="m 156.63115,146.2204 a 7.6504228,7.6504228 0 0 1 -4.01868,-1.08364 l 0.43872,-0.94326 a 6.6418029,6.6418029 0 0 0 3.5668,1.12752 c 1.4741,0 2.73323,-0.68002 2.73323,-2.42175 0,-1.64959 -1.44778,-2.14534 -2.89995,-2.63233 -1.87772,-0.66247 -3.5668,-1.36881 -3.5668,-3.48783 0,-2.28574 2.16289,-2.94382 3.80371,-2.94382 a 7.6811332,7.6811332 0 0 1 3.37816,0.84673 l -0.33343,0.94325 a 6.2772251,6.2772251 0 0 0 -3.07105,-0.87744 c -1.45217,0 -2.73762,0.56595 -2.73762,2.11903 0,1.43901 1.45217,1.9567 3.04472,2.49633 1.68908,0.56594 3.44835,1.34247 3.44835,3.50976 0,2.39981 -1.82946,3.39132 -3.80371,3.39132"
       fill="#315470"
       style="stroke-width:0.438721" /><path
       id="Path_31"
       data-name="Path 31"
       d="m 195.5238,146.2204 a 7.6596362,7.6596362 0 0 1 -4.01868,-1.08364 l 0.43872,-0.94326 a 6.649261,6.649261 0 0 0 3.5668,1.12752 c 1.47849,0 2.73762,-0.68002 2.73762,-2.42175 0,-1.64959 -1.45217,-2.14534 -2.89995,-2.63233 -1.87773,-0.66247 -3.57119,-1.36881 -3.57119,-3.48783 0,-2.28574 2.16728,-2.94382 3.8081,-2.94382 a 7.6565647,7.6565647 0 0 1 3.37377,0.84673 l -0.33343,0.94325 a 6.2482695,6.2482695 0 0 0 -3.07105,-0.87744 c -1.44778,0 -2.73323,0.56595 -2.73323,2.11903 0,1.43901 1.44778,1.9567 3.04473,2.49633 1.68907,0.56594 3.44834,1.34247 3.44834,3.50976 0,2.39981 -1.83385,3.39132 -3.8081,3.39132"
       fill="#315470"
       style="stroke-width:0.438721" /><path
       id="Path_32"
       data-name="Path 32"
       d="m 268.6762,146.2204 a 7.6504228,7.6504228 0 0 1 -4.01869,-1.08364 l 0.43872,-0.94326 a 6.6246924,6.6246924 0 0 0 3.56681,1.12752 c 1.4741,0 2.73323,-0.68002 2.73323,-2.42175 0,-1.64959 -1.44778,-2.14534 -2.89994,-2.63233 -1.87773,-0.66247 -3.56681,-1.36881 -3.56681,-3.48783 0,-2.28574 2.1629,-2.94382 3.80371,-2.94382 a 7.6429647,7.6429647 0 0 1 3.37377,0.84673 l -0.32904,0.94325 a 6.2772251,6.2772251 0 0 0 -3.07105,-0.87744 c -1.45217,0 -2.73762,0.56595 -2.73762,2.11903 0,1.43901 1.45217,1.9567 3.04473,2.49633 1.68907,0.56594 3.44835,1.34247 3.44835,3.50976 0,2.39981 -1.82947,3.39132 -3.80372,3.39132"
       fill="#315470"
       style="stroke-width:0.438721" /><path
       id="Path_33"
       data-name="Path 33"
       d="m 168.2134,145.34734 c 3.16317,0 3.97042,-2.65865 3.97042,-5.29975 0,-2.64111 -0.80725,-5.34363 -3.97042,-5.34363 -3.16319,0 -3.99676,2.68936 -3.99676,5.34801 0,2.65866 0.81163,5.29976 3.99676,5.29976 m -0.022,-11.52521 c 3.637,0 5.13303,2.7771 5.13303,6.23861 0,3.34745 -1.4741,6.1421 -5.13303,6.1421 -3.65893,0 -5.1155,-2.80343 -5.1155,-6.1421 0,-3.33867 1.45217,-6.23861 5.1155,-6.23861"
       fill="#315470"
       style="stroke-width:0.438721" /><path
       id="Path_34"
       data-name="Path 34"
       d="m 181.91028,134.81802 c -2.47001,0 -3.90024,0.96519 -3.90024,3.11054 v 8.03299 h -1.09241 v -11.82354 h 0.90376 l 0.11846,1.43462 h 0.0482 c 0.73706,-1.24597 2.16289,-1.75489 3.78178,-1.75489 h 0.47382 v 0.98713 z"
       fill="#315470"
       style="stroke-width:0.438721" /><path
       id="Path_35"
       data-name="Path 35"
       d="m 188.35509,146.05368 c -2.56652,0 -2.85169,-1.15384 -2.85169,-2.70691 v -8.29184 h -2.0225 v -0.91692 h 2.0225 v -3.34745 h 1.09242 v 3.34745 h 2.90433 v 0.91692 h -2.90433 v 8.10318 c 0,1.29424 0.0965,1.93039 1.99618,1.93039 h 0.90815 v 0.87744 a 7.3595506,7.3595506 0 0 1 -1.14506,0.0921"
       fill="#315470"
       style="stroke-width:0.438721" /><path
       id="Path_36"
       data-name="Path 36"
       d="m 217.45548,138.21373 h -2.92628 c -3.42202,0 -4.54076,0.80286 -4.54076,3.62822 0,2.82537 1.80754,3.41764 3.92656,3.41764 2.78149,0 3.54048,-1.55745 3.54048,-3.94849 z m 1.14067,0 v 3.15879 c 0,2.19361 -0.66247,4.85226 -4.68115,4.85226 -4.11521,0 -5.09356,-2.09709 -5.09356,-4.38721 0,-2.29013 0.95203,-3.79055 3.09299,-4.17224 v -0.0438 a 3.4439626,3.4439626 0 0 1 -2.54458,-3.50977 c 0,-2.51826 1.59255,-3.86514 4.63728,-3.86514 a 6.6088982,6.6088982 0 0 1 3.35183,0.85112 l -0.37729,0.93886 a 5.313793,5.313793 0 0 0 -3.0228,-0.84234 c -2.23309,0 -3.42203,1.01345 -3.42203,2.82975 0,1.48288 0.82919,3.22461 4.15908,3.22461 h 2.80782 v -3.07105 h 1.11874 v 3.07105 h 2.35155 v 0.96518 z"
       fill="#315470"
       style="stroke-width:0.438721" /><path
       id="Path_37"
       data-name="Path 37"
       d="m 233.70572,146.2204 a 7.6504228,7.6504228 0 0 1 -4.01869,-1.08364 l 0.43872,-0.94326 a 6.6246924,6.6246924 0 0 0 3.56681,1.12752 c 1.4741,0 2.73323,-0.68002 2.73323,-2.42175 0,-1.64959 -1.45216,-2.14534 -2.89995,-2.63233 -1.88212,-0.66247 -3.57119,-1.36881 -3.57119,-3.48783 0,-2.28574 2.16728,-2.94382 3.8081,-2.94382 a 7.6565647,7.6565647 0 0 1 3.37377,0.84673 l -0.32904,0.94325 a 6.2776639,6.2776639 0 0 0 -3.07106,-0.87744 c -1.45216,0 -2.73761,0.56595 -2.73761,2.11903 0,1.43901 1.45216,1.9567 3.04473,2.49633 1.68907,0.56594 3.44834,1.34247 3.44834,3.50976 0,2.39981 -1.83385,3.39132 -3.80371,3.39132"
       fill="#315470"
       style="stroke-width:0.438721" /><path
       id="Path_38"
       data-name="Path 38"
       d="m 245.35816,134.70396 c -2.09271,0 -3.54488,1.25035 -3.54488,3.44397 v 3.17633 c 0,2.19361 1.31617,4.0494 3.50979,4.0494 3.04033,0 3.68086,-2.79904 3.68086,-5.29537 0,-2.59284 -0.35536,-5.37433 -3.65893,-5.37433 m 0.14038,11.52082 a 3.9484922,3.9484922 0 0 1 -3.61067,-2.04882 l -0.0527,-0.022 v 6.99322 h -1.09242 v -17.0092 h 0.90377 l 0.14478,1.575 h 0.0438 c 0.83357,-1.36442 2.16728,-1.88212 3.66332,-1.88212 3.8783,0 4.6636,3.07106 4.6636,6.26495 0,3.19389 -1.04414,6.14209 -4.6636,6.14209"
       fill="#315470"
       style="stroke-width:0.438721" /><path
       id="Path_39"
       data-name="Path 39"
       d="m 260.55108,139.20085 c -2.30328,0 -6.48869,0.16672 -6.48869,3.46152 a 2.6586514,2.6586514 0 0 0 2.58275,2.73235 c 0.0343,0 0.068,0 0.10222,0 1.54869,0 2.63233,-0.73267 3.80372,-1.64959 z m 1.07048,6.85283 c -0.64054,-0.28078 -0.90377,-0.63615 -0.94763,-1.48288 h -0.0263 a 6.3697954,6.3697954 0 0 1 -4.04062,1.6496 c -2.07077,0 -3.66332,-1.31617 -3.66332,-3.50977 0,-4.00553 4.58902,-4.31264 7.60743,-4.31264 v -1.50042 c -0.11846,-1.50921 -0.89939,-2.19361 -2.56653,-2.19361 a 7.7175478,7.7175478 0 0 0 -4.1854,1.439 l -0.47821,-0.85112 a 9.1346171,9.1346171 0 0 1 4.73819,-1.46532 c 2.28135,0 3.5668,1.01344 3.5668,3.43957 v 6.80457 c 0.022,0.54402 0.1404,0.96519 0.54403,1.10558 z"
       fill="#315470"
       style="stroke-width:0.438721" /><path
       id="Path_40"
       data-name="Path 40"
       d="m 91.227863,77.56485 a 96.021024,96.021024 0 0 1 -4.554919,9.74444 c -2.781585,5.43269 -5.414898,10.55698 -6.215567,16.25063 a 24.340351,24.340351 0 0 0 -0.118618,5.61655 36.260243,36.260243 0 0 1 3.961831,-6.75528 c 0.818462,-1.09722 1.702164,-2.14698 2.609589,-3.17896 3.006959,-3.39839 6.340116,-6.52397 8.937844,-10.21891 a 30.13186,30.13186 0 0 0 4.916707,-16.13201 v -1.39375 0 c 0,-0.34993 -0.0593,-0.70578 -0.089,-1.0557 A 38.728677,38.728677 0 0 0 96.103054,55.46044 50.353211,50.353211 0 0 0 93.33333,51.02414 48.340862,48.340862 0 0 1 91.227866,77.54706"
       fill="#315470"
       style="stroke-width:0.593088" /><path
       id="Path_41"
       data-name="Path 41"
       d="m 87.532922,46.510738 c 0.907426,5.337792 0,10.278222 -2.485041,13.919782 a 27.768995,27.768995 0 0 1 -4.009278,4.3592 c -0.47447,0.45075 -0.954872,0.90743 -1.423412,1.37004 a 61.537081,61.537081 0 0 0 -5.076837,5.62248 c 2.556211,4.97008 3.327226,11.35764 2.247805,19.05593 -0.4033,2.89427 -1.00825,5.80041 -1.595408,8.60571 -0.87184,4.15162 -1.779265,8.50489 -1.998708,12.79885 -0.551572,10.62222 1.27514,18.42726 6.156258,25.17068 a 36.426901,36.426901 0 0 1 -2.307114,-10.36719 c -0.06524,-0.92522 -0.0771,-1.85637 -0.06524,-2.78158 a 37.008721,37.008721 0 0 1 1.221763,-9.08612 28.414276,28.414276 0 0 1 -0.960804,-12.06935 c 0.87184,-6.22743 3.75425,-11.86177 6.523974,-17.2648 a 94.976595,94.976595 0 0 0 4.412578,-9.41825 45.287643,45.287643 0 0 0 -0.171996,-32.103878 c -0.427024,-0.474471 -0.87184,-0.93708 -1.310725,-1.399689 a 31.504267,31.504267 0 0 1 0.842185,3.588185"
       fill="#315470"
       style="stroke-width:0.593088" /><path
       id="Path_42"
       data-name="Path 42"
       d="m 70.878998,77.33948 a 62.143217,62.143217 0 0 0 -5.207317,17.57321 59.980816,59.980816 0 0 0 -0.249097,14.76197 c 0.166065,1.51238 0.397369,3.01882 0.676121,4.5134 a 62.186512,62.186512 0 0 0 16.191315,31.32101 15.667025,15.667025 0 0 0 2.965442,2.23001 c 7.793183,4.46595 13.332629,-3.83728 13.332629,-3.83728 -6.393493,7.05775 -11.861769,3.94997 -14.625561,1.35817 -9.791891,-8.7184 -13.463109,-18.3205 -12.656508,-33.09434 0.225373,-4.4363 1.14466,-8.83109 2.034293,-13.08946 0.593089,-2.76972 1.186177,-5.64027 1.577615,-8.47523 0.954873,-6.85611 0.385508,-12.55569 -1.648786,-17.05723 a 34.195109,34.195109 0 0 0 -2.372353,3.79577"
       fill="#315470"
       style="stroke-width:0.593088" /><path
       id="Path_43"
       data-name="Path 43"
       d="M 78.13247,41.422039 A 17.757069,17.757069 0 0 1 73.192043,52.80341 c -2.662967,2.746 -6.132535,4.53712 -9.489416,6.13846 l -0.818462,0.38551 c -2.965442,1.41155 -5.990193,2.86462 -8.469303,4.92857 h -0.03558 c 0.646466,-0.32027 1.292932,-0.6524 1.963122,-0.91336 0.67019,-0.26096 1.322588,-0.45668 1.986847,-0.65833 l 0.272821,-0.083 c 0.593088,-0.16607 1.186176,-0.30841 1.779265,-0.43296 l 0.438885,-0.0949 c 0.551573,-0.10676 1.103145,-0.18979 1.654717,-0.26096 l 0.492264,-0.0712 c 0.699844,-0.0712 1.405619,-0.12455 2.105464,-0.14234 h 0.112687 a 0.50768373,0.50768373 0 0 0 0.09489,0 h 1.54203 c 0.349922,0 0.699844,0.0534 1.055697,0.0771 a 6.4877948,6.4877948 0 0 1 0.676121,0.0534 c 0.486333,0.0534 0.960803,0.12455 1.441205,0.20758 l 0.26689,0.0356 c 0.557503,0.10083 1.109075,0.22538 1.660648,0.35586 v 0 a 23.446567,23.446567 0 0 1 6.357908,2.62145 v 0 l 0.118618,-0.12455 c 0.480401,-0.47447 0.972665,-0.93115 1.458997,-1.39376 a 26.030653,26.030653 0 0 0 3.742388,-4.05675 c 2.230012,-3.23827 3.006958,-7.71015 2.176634,-12.531962 a 35.84686,35.84686 0 0 0 -2.069878,-7.03996 q -1.364104,-1.287002 -2.769724,-2.54435 L 80.475169,36.843396 Q 79.14072,35.657219 77.782548,34.512558 l -1.091283,-0.895563 a 17.694795,17.694795 0 0 1 1.441205,7.805044"
       fill="#315470"
       style="stroke-width:0.593088" /><path
       id="Path_44"
       data-name="Path 44"
       d="m 51.461281,60.80417 -0.320267,3.99742 a 18.084454,18.084454 0 0 1 2.034293,-1.99871 c 2.668898,-2.22408 5.824129,-3.73053 8.896327,-5.18953 l 0.836255,-0.4033 c 3.178954,-1.52423 6.476526,-3.2264 8.896327,-5.74702 A 15.846731,15.846731 0 0 0 76.216794,41.333076 15.859186,15.859186 0 0 0 74.224017,32.946805 48.841429,48.841429 0 0 1 51.461281,60.82196"
       fill="#315470"
       style="stroke-width:0.593088" /></g></svg>
