<?xml version="1.0" encoding="UTF-8" standalone="no"?>
<svg
   width="303"
   height="84"
   viewBox="0 0 303 84"
   version="1.1"
   id="svg64"
   sodipodi:docname="logo.svg"
   xml:space="preserve"
   inkscape:version="1.2.2 (732a01da63, 2022-12-09)"
   xmlns:inkscape="http://www.inkscape.org/namespaces/inkscape"
   xmlns:sodipodi="http://sodipodi.sourceforge.net/DTD/sodipodi-0.dtd"
   xmlns="http://www.w3.org/2000/svg"
   xmlns:svg="http://www.w3.org/2000/svg"><sodipodi:namedview
     id="namedview66"
     pagecolor="#ffffff"
     bordercolor="#000000"
     borderopacity="0.25"
     inkscape:showpageshadow="2"
     inkscape:pageopacity="0.0"
     inkscape:pagecheckerboard="0"
     inkscape:deskcolor="#d1d1d1"
     showgrid="false"
     inkscape:zoom="2.6133909"
     inkscape:cx="172.38141"
     inkscape:cy="108.09711"
     inkscape:window-width="1350"
     inkscape:window-height="978"
     inkscape:window-x="313"
     inkscape:window-y="15"
     inkscape:window-maximized="0"
     inkscape:current-layer="Group_1" /><defs
     id="defs38"><clipPath
       id="clip-Haven-logo-horizontal-blue"><rect
         width="463"
         height="235"
         id="rect35"
         x="0"
         y="0" /></clipPath><clipPath
       id="clip-Haven-logo-horizontal-blue-0"><rect
         width="463"
         height="235"
         id="rect566"
         x="0"
         y="0" /></clipPath></defs><g
     id="Group_1"
     data-name="Group 1"
     transform="matrix(0.73053195,0,0,0.73053195,-21.737458,-19.465569)"
     clip-path="url(#clipPath628)"><path
       id="Path_23"
       data-name="Path 23"
       d="m 178.31241,113.03843 h -10.8506 V 86.148639 a 15.556312,15.556312 0 0 0 -4.65837,-11.532312 17.109103,17.109103 0 0 0 -23.3392,0 15.546844,15.546844 0 0 0 -4.65838,11.560716 V 113.06684 H 123.95527 V 35.938582 h 10.85059 v 28.669819 a 26.728831,26.728831 0 0 1 16.35165,-5.396894 26.377559,26.377559 0 0 1 19.36254,7.745017 25.951488,25.951488 0 0 1 7.79236,19.192115 z"
       fill="#315470"
       style="stroke-width:0.946824" /><path
       id="Path_24"
       data-name="Path 24"
       d="m 203.45058,74.616327 a 15.516545,15.516545 0 0 0 -4.67731,11.532312 15.519386,15.519386 0 0 0 4.67731,11.52284 17.042825,17.042825 0 0 0 23.32026,0 15.575248,15.575248 0 0 0 4.65837,-11.532309 15.575248,15.575248 0 0 0 -4.65837,-11.532311 17.042825,17.042825 0 0 0 -23.32026,0 m 38.81976,8.833864 v 29.588237 h -10.84113 v -5.34008 a 26.831088,26.831088 0 0 1 -16.3043,5.34008 26.511061,26.511061 0 0 1 -19.33414,-7.70714 25.866274,25.866274 0 0 1 -7.82076,-19.173181 25.972319,25.972319 0 0 1 7.82076,-19.201583 28.063852,28.063852 0 0 1 37.71199,-0.890014 25.982734,25.982734 0 0 1 8.61609,17.412086 z"
       fill="#315470"
       style="stroke-width:0.946824" /><path
       id="Path_25"
       data-name="Path 25"
       d="M 307.57277,59.362999 283.60866,113.08577 H 268.5447 l -23.96411,-53.722771 11.77849,-0.104151 19.74127,43.288782 19.64659,-43.288782 z"
       fill="#315470"
       style="stroke-width:0.946824" /><path
       id="Path_26"
       data-name="Path 26"
       d="m 325.84647,72.949917 a 15.771241,15.771241 0 0 0 -5.96499,7.754486 h 30.69602 a 15.799646,15.799646 0 0 0 -5.91765,-7.78289 16.558998,16.558998 0 0 0 -18.81338,0 m 0,26.406916 a 16.096001,16.096001 0 0 0 9.41142,2.935151 h 24.41858 v 10.93581 h -24.61741 v -0.16096 a 26.409751,26.409751 0 0 1 -19.27733,-7.76395 25.875743,25.875743 0 0 1 -7.77342,-19.125841 25.92119,25.92119 0 0 1 7.82076,-19.192115 27.192774,27.192774 0 0 1 45.96829,13.833093 l -6.75085,10.812726 h -35.16503 a 15.811954,15.811954 0 0 0 5.96499,7.754486"
       fill="#315470"
       style="stroke-width:0.946824" /><path
       id="Path_27"
       data-name="Path 27"
       d="m 416.18291,66.539922 a 26.01966,26.01966 0 0 1 7.79235,19.201583 V 112.6313 H 413.12467 V 85.741505 a 15.679399,15.679399 0 0 0 -4.64891,-11.560717 17.042825,17.042825 0 0 0 -23.34867,0 15.631111,15.631111 0 0 0 -4.6489,11.589121 V 112.6597 h -10.8506 V 85.741505 a 25.960957,25.960957 0 0 1 7.81129,-19.201583 28.120661,28.120661 0 0 1 38.74403,0"
       fill="#315470"
       style="stroke-width:0.946824" /><path
       id="Path_28"
       data-name="Path 28"
       d="m 127.51402,123.65555 c -1.78157,0 -2.81317,0.69617 -2.81317,2.24358 v 5.79407 h -0.78795 v -8.52813 h 0.65188 l 0.0854,1.03477 h 0.0348 c 0.53162,-0.8987 1.56006,-1.26578 2.72773,-1.26578 h 0.34176 v 0.71201 z"
       fill="#315470"
       style="stroke-width:0.316442" /><path
       id="Path_29"
       data-name="Path 29"
       d="m 132.28282,123.55429 c -2.26257,0 -2.84799,1.92081 -2.84799,3.49987 h 5.3194 c 0,-1.73411 -0.66769,-3.49987 -2.47141,-3.49987 m 3.22455,4.13275 H 129.438 c 0,2.15814 0.99362,3.56631 2.86381,3.56631 a 3.7087104,3.7087104 0 0 0 2.55369,-1.01896 l 0.34492,0.5791 a 4.3599498,4.3599498 0 0 1 -2.9176,1.06958 c -2.41763,0 -3.67074,-1.71829 -3.67074,-4.45236 0,-2.54735 1.13287,-4.48399 3.67074,-4.48399 2.09484,0 3.24354,1.71512 3.24354,4.09478 0,0.10125 0,0.50947 -0.019,0.63288"
       fill="#315470"
       style="stroke-width:0.316442" /><path
       id="Path_30"
       data-name="Path 30"
       d="m 140.17491,131.87991 a 5.5181305,5.5181305 0 0 1 -2.89862,-0.78162 l 0.31645,-0.68036 a 4.7906287,4.7906287 0 0 0 2.57267,0.81327 c 1.06325,0 1.97143,-0.49049 1.97143,-1.74677 0,-1.18983 -1.04426,-1.5474 -2.09168,-1.89866 -1.35437,-0.47783 -2.57268,-0.9873 -2.57268,-2.51572 0,-1.64867 1.56006,-2.12333 2.74355,-2.12333 a 5.5402814,5.5402814 0 0 1 2.43662,0.61073 l -0.24049,0.68036 a 4.5276645,4.5276645 0 0 0 -2.21511,-0.63289 c -1.04743,0 -1.9746,0.40821 -1.9746,1.52843 0,1.03793 1.04743,1.41133 2.19611,1.80056 1.2183,0.40821 2.48724,0.9683 2.48724,2.53154 0,1.73094 -1.31956,2.4461 -2.74356,2.4461"
       fill="#315470"
       style="stroke-width:0.316442" /><path
       id="Path_31"
       data-name="Path 31"
       d="m 168.22757,131.87991 a 5.524776,5.524776 0 0 1 -2.89862,-0.78162 l 0.31644,-0.68036 a 4.7960081,4.7960081 0 0 0 2.57268,0.81327 c 1.06641,0 1.9746,-0.49049 1.9746,-1.74677 0,-1.18983 -1.04742,-1.5474 -2.09168,-1.89866 -1.35438,-0.47783 -2.57585,-0.9873 -2.57585,-2.51572 0,-1.64867 1.56322,-2.12333 2.74673,-2.12333 a 5.5225606,5.5225606 0 0 1 2.43344,0.61073 l -0.24049,0.68036 a 4.5067792,4.5067792 0 0 0 -2.21511,-0.63289 c -1.04426,0 -1.97143,0.40821 -1.97143,1.52843 0,1.03793 1.04426,1.41133 2.19612,1.80056 1.21829,0.40821 2.48723,0.9683 2.48723,2.53154 0,1.73094 -1.32273,2.4461 -2.74672,2.4461"
       fill="#315470"
       style="stroke-width:0.316442" /><path
       id="Path_32"
       data-name="Path 32"
       d="m 220.99125,131.87991 a 5.5181305,5.5181305 0 0 1 -2.89862,-0.78162 l 0.31644,-0.68036 a 4.7782872,4.7782872 0 0 0 2.57269,0.81327 c 1.06324,0 1.97143,-0.49049 1.97143,-1.74677 0,-1.18983 -1.04426,-1.5474 -2.09168,-1.89866 -1.35438,-0.47783 -2.57268,-0.9873 -2.57268,-2.51572 0,-1.64867 1.56007,-2.12333 2.74355,-2.12333 a 5.5127511,5.5127511 0 0 1 2.43345,0.61073 l -0.23733,0.68036 a 4.5276645,4.5276645 0 0 0 -2.2151,-0.63289 c -1.04743,0 -1.9746,0.40821 -1.9746,1.52843 0,1.03793 1.04742,1.41133 2.19611,1.80056 1.2183,0.40821 2.48724,0.9683 2.48724,2.53154 0,1.73094 -1.31956,2.4461 -2.74356,2.4461"
       fill="#315470"
       style="stroke-width:0.316442" /><path
       id="Path_33"
       data-name="Path 33"
       d="m 148.529,131.25019 c 2.28154,0 2.8638,-1.91765 2.8638,-3.82263 0,-1.905 -0.58226,-3.85428 -2.8638,-3.85428 -2.28156,0 -2.8828,1.93979 -2.8828,3.85743 0,1.91766 0.58542,3.82264 2.8828,3.82264 m -0.0159,-8.31296 c 2.62331,0 3.70238,2.00309 3.70238,4.49981 0,2.41447 -1.06324,4.43021 -3.70238,4.43021 -2.63913,0 -3.68973,-2.02207 -3.68973,-4.43021 0,-2.40813 1.04743,-4.49981 3.68973,-4.49981"
       fill="#315470"
       style="stroke-width:0.316442" /><path
       id="Path_34"
       data-name="Path 34"
       d="m 158.40834,123.65555 c -1.78158,0 -2.81318,0.69617 -2.81318,2.24358 v 5.79407 h -0.78794 v -8.52813 h 0.65187 l 0.0855,1.03477 h 0.0347 c 0.53163,-0.8987 1.56006,-1.26578 2.72774,-1.26578 h 0.34176 v 0.71201 z"
       fill="#315470"
       style="stroke-width:0.316442" /><path
       id="Path_35"
       data-name="Path 35"
       d="m 163.05688,131.75966 c -1.85119,0 -2.05688,-0.83225 -2.05688,-1.95246 v -5.98077 h -1.4588 v -0.66136 H 161 v -2.41447 h 0.78795 v 2.41447 h 2.09485 v 0.66136 h -2.09485 v 5.84469 c 0,0.93352 0.0696,1.39237 1.43981,1.39237 h 0.65504 v 0.63288 a 5.3083289,5.3083289 0 0 1 -0.82592,0.0664"
       fill="#315470"
       style="stroke-width:0.316442" /><path
       id="Path_36"
       data-name="Path 36"
       d="m 184.04654,126.10482 h -2.11068 c -2.46825,0 -3.27518,0.57909 -3.27518,2.61698 0,2.0379 1.30375,2.46509 2.83217,2.46509 2.00625,0 2.55369,-1.12337 2.55369,-2.84798 z m 0.82275,0 v 2.27839 c 0,1.58221 -0.47783,3.49986 -3.37644,3.49986 -2.96824,0 -3.6739,-1.5126 -3.6739,-3.16443 0,-1.65184 0.68668,-2.73406 2.23092,-3.00937 v -0.0316 a 2.4840764,2.4840764 0 0 1 -1.83537,-2.53155 c 0,-1.81638 1.14869,-2.78786 3.3448,-2.78786 a 4.7668951,4.7668951 0 0 1 2.41762,0.6139 l -0.27213,0.67718 a 3.8327559,3.8327559 0 0 0 -2.18029,-0.60756 c -1.6107,0 -2.46826,0.73098 -2.46826,2.04105 0,1.06958 0.59807,2.32586 2.99987,2.32586 h 2.02524 v -2.2151 h 0.80693 v 2.2151 h 1.69613 v 0.69617 z"
       fill="#315470"
       style="stroke-width:0.316442" /><path
       id="Path_37"
       data-name="Path 37"
       d="m 195.76759,131.87991 a 5.5181305,5.5181305 0 0 1 -2.89862,-0.78162 l 0.31644,-0.68036 a 4.7782872,4.7782872 0 0 0 2.57268,0.81327 c 1.06325,0 1.97144,-0.49049 1.97144,-1.74677 0,-1.18983 -1.04742,-1.5474 -2.09169,-1.89866 -1.35754,-0.47783 -2.57584,-0.9873 -2.57584,-2.51572 0,-1.64867 1.56322,-2.12333 2.74672,-2.12333 a 5.5225606,5.5225606 0 0 1 2.43345,0.61073 l -0.23733,0.68036 a 4.5279809,4.5279809 0 0 0 -2.21511,-0.63289 c -1.04742,0 -1.9746,0.40821 -1.9746,1.52843 0,1.03793 1.04742,1.41133 2.19612,1.80056 1.2183,0.40821 2.48723,0.9683 2.48723,2.53154 0,1.73094 -1.32273,2.4461 -2.74355,2.4461"
       fill="#315470"
       style="stroke-width:0.316442" /><path
       id="Path_38"
       data-name="Path 38"
       d="m 204.17231,123.57328 c -1.50944,0 -2.55687,0.90185 -2.55687,2.48408 v 2.29104 c 0,1.58221 0.94934,2.92077 2.53156,2.92077 2.19294,0 2.65495,-2.01891 2.65495,-3.81947 0,-1.87018 -0.25632,-3.87642 -2.63914,-3.87642 m 0.10126,8.30979 a 2.8479858,2.8479858 0 0 1 -2.60432,-1.47778 l -0.038,-0.0159 v 5.0441 h -0.78794 V 123.165 h 0.65187 l 0.10443,1.13602 h 0.0316 c 0.60124,-0.98414 1.56323,-1.35754 2.6423,-1.35754 2.79735,0 3.36378,2.2151 3.36378,4.5188 0,2.30371 -0.75312,4.4302 -3.36378,4.4302"
       fill="#315470"
       style="stroke-width:0.316442" /><path
       id="Path_39"
       data-name="Path 39"
       d="m 215.13073,126.81681 c -1.66132,0 -4.6802,0.12026 -4.6802,2.49674 a 1.9176437,1.9176437 0 0 0 1.8629,1.97081 c 0.0248,0 0.0491,0 0.0737,0 1.11704,0 1.89866,-0.52846 2.74356,-1.18982 z m 0.77212,4.94285 c -0.46201,-0.20252 -0.65188,-0.45885 -0.68351,-1.06958 h -0.019 a 4.5944339,4.5944339 0 0 1 -2.91444,1.18983 c -1.49361,0 -2.6423,-0.94933 -2.6423,-2.53154 0,-2.88913 3.30999,-3.11064 5.48713,-3.11064 v -1.08224 c -0.0855,-1.08856 -0.64873,-1.58221 -1.8512,-1.58221 a 5.5665467,5.5665467 0 0 0 -3.01887,1.03793 l -0.34492,-0.6139 a 6.5886567,6.5886567 0 0 1 3.41758,-1.05692 c 1.6455,0 2.57268,0.73098 2.57268,2.48092 v 4.90803 c 0.0158,0.39239 0.10127,0.69617 0.3924,0.79743 z"
       fill="#315470"
       style="stroke-width:0.316442" /><path
       id="Path_40"
       data-name="Path 40"
       d="m 83.394232,73.154475 a 79.766224,79.766224 0 0 1 -3.783845,8.094864 c -2.310708,4.513024 -4.498244,8.769855 -5.163372,13.499662 a 20.219925,20.219925 0 0 0 -0.09854,4.665759 30.121972,30.121972 0 0 1 3.291159,-5.611721 c 0.679909,-0.911477 1.414015,-1.78353 2.167827,-2.640813 2.49793,-2.823098 5.266838,-5.419568 7.424812,-8.489014 a 25.031026,25.031026 0 0 0 4.084389,-13.401123 v -1.157811 0 c 0,-0.290693 -0.04927,-0.586303 -0.07394,-0.876987 a 32.172541,32.172541 0 0 0 -3.79859,-12.445309 41.82923,41.82923 0 0 0 -2.300854,-3.685306 40.157539,40.157539 0 0 1 -1.749043,22.03302"
       fill="#315470"
       style="stroke-width:0.492688" /><path
       id="Path_41"
       data-name="Path 41"
       d="m 80.324785,47.357319 c 0.753813,4.434191 0,8.538286 -2.064364,11.563389 a 23.068155,23.068155 0 0 1 -3.330573,3.621259 c -0.394149,0.374445 -0.793227,0.753816 -1.182451,1.138114 a 51.119853,51.119853 0 0 0 -4.217411,4.670685 c 2.123486,4.128727 2.763981,9.434977 1.867288,15.830071 -0.335027,2.404317 -0.837569,4.818495 -1.325331,7.148903 -0.724252,3.448818 -1.478064,7.065153 -1.660359,10.63221 -0.4582,8.82406 1.05928,15.30783 5.114103,20.9097 a 30.260418,30.260418 0 0 1 -1.916557,-8.6122 c -0.05419,-0.76859 -0.06405,-1.54211 -0.05419,-2.31069 a 30.743745,30.743745 0 0 1 1.014933,-7.548 23.604201,23.604201 0 0 1 -0.798156,-10.026204 c 0.724252,-5.173228 3.118716,-9.853765 5.419571,-14.34215 A 78.8986,78.8986 0 0 0 80.856889,72.208513 37.621181,37.621181 0 0 0 80.714009,45.5393 c -0.354736,-0.394151 -0.724252,-0.778447 -1.088841,-1.162744 a 26.171106,26.171106 0 0 1 0.699617,2.980763"
       fill="#315470"
       style="stroke-width:0.492688" /><path
       id="Path_42"
       data-name="Path 42"
       d="m 66.490099,72.967256 a 51.623379,51.623379 0 0 0 -4.325802,14.598351 49.827038,49.827038 0 0 0 -0.206929,12.263009 c 0.137953,1.256364 0.330101,2.507784 0.561665,3.749354 a 51.659345,51.659345 0 0 0 13.450388,26.01888 13.014852,13.014852 0 0 0 2.463441,1.8525 c 6.473924,3.70994 11.075631,-3.18769 11.075631,-3.18769 -5.311178,5.86299 -9.853764,3.28131 -12.149691,1.12825 -8.134282,-7.24252 -11.184023,-15.21913 -10.513966,-27.492 0.18722,-3.685308 0.950887,-7.336135 1.689919,-10.873633 0.492689,-2.300851 0.985377,-4.685463 1.310552,-7.04051 0.793228,-5.695482 0.320247,-10.430216 -1.369674,-14.169719 a 28.406433,28.406433 0 0 0 -1.970752,3.153208"
       fill="#315470"
       style="stroke-width:0.492688" /><path
       id="Path_43"
       data-name="Path 43"
       d="m 72.515677,43.130055 a 14.751085,14.751085 0 0 1 -4.104093,9.45469 c -2.21217,2.281146 -5.094397,3.769059 -7.883012,5.099317 l -0.67991,0.32025 c -2.463441,1.172597 -4.976151,2.379686 -7.035587,4.094243 h -0.02956 c 0.53703,-0.266053 1.07406,-0.541959 1.630797,-0.758743 0.556738,-0.216784 1.098695,-0.379371 1.650507,-0.546885 l 0.226636,-0.06895 c 0.492688,-0.137957 0.985376,-0.256201 1.478065,-0.359666 l 0.364589,-0.07883 c 0.458202,-0.08869 0.916401,-0.157662 1.374602,-0.216784 l 0.408931,-0.05914 c 0.581372,-0.05914 1.167671,-0.103466 1.749043,-0.118244 h 0.09361 a 0.42174111,0.42174111 0 0 0 0.07882,0 h 1.280989 c 0.290686,0 0.581371,0.04436 0.876984,0.06405 a 5.3895165,5.3895165 0 0 1 0.561665,0.04436 c 0.404005,0.04436 0.798154,0.103466 1.197232,0.172439 l 0.22171,0.02958 c 0.463127,0.08376 0.921327,0.187226 1.379528,0.295619 v 0 a 19.477444,19.477444 0 0 1 5.281617,2.177681 v 0 l 0.09854,-0.103466 c 0.399077,-0.39415 0.808009,-0.773521 1.212012,-1.157819 a 21.624086,21.624086 0 0 0 3.108863,-3.370008 c 1.852507,-2.690083 2.497929,-6.404947 1.808165,-10.410504 a 29.778569,29.778569 0 0 0 -1.719481,-5.84821 Q 76.01376,40.715888 74.846088,39.671389 L 74.461792,39.326506 Q 73.353243,38.34113 72.224988,37.390242 l -0.906547,-0.743959 a 14.699354,14.699354 0 0 1 1.197232,6.483777"
       fill="#315470"
       style="stroke-width:0.492688" /><path
       id="Path_44"
       data-name="Path 44"
       d="m 50.359487,59.231105 -0.266051,3.320722 a 15.023049,15.023049 0 0 1 1.689921,-1.660361 c 2.217096,-1.847579 4.838198,-3.099012 7.390322,-4.311027 l 0.694691,-0.335028 c 2.640809,-1.266202 5.380156,-2.680222 7.390324,-4.774142 a 13.164137,13.164137 0 0 0 3.6656,-8.415118 13.174483,13.174483 0 0 0 -1.655433,-6.966611 40.573368,40.573368 0 0 1 -18.909374,23.156344"
       fill="#315470"
       style="stroke-width:0.492688" /></g></svg>
